<?xml version="1.0" encoding="UTF-8" standalone="no"?>
<!DOCTYPE svg PUBLIC "-//W3C//DTD SVG 1.1//EN"
        "http://www.w3.org/Graphics/SVG/1.1/DTD/svg11.dtd">
<svg id="watermark-container" viewBox="0 0 10000 1" x="2%" y="48%" preserveAspectRatio="xMinyMid meet" opacity="50%" xmlns="http://www.w3.org/2000/svg" xmlns:xlink="http://www.w3.org/1999/xlink">
  <svg id="generated-by" width="1945" height="199" viewBox="0 0 1945 199" >
      <polygon fill="white" stroke="none" points="0,0 0,199 1945,199 1945,0"/>
      <text id="Generated-by-the" xml:space="preserve" x="34" y="130" font-family="Arial" font-size="84" fill="#000000">Generated by the</text>
      <text id="network-mapper" xml:space="preserve" x="1303" y="130" font-family="Arial" font-size="84" fill="#000000">network mapper</text>
      <g id="Otterize-logo---light-bkgd">
          <path id="Path" fill="#03709a" stroke="none" d="M 1080.598022 121.777496 C 1080.386963 121.654297 1080.140015 121.619102 1079.911011 121.689499 C 1077.535034 122.375999 1074.842041 122.7985 1072.729004 122.7985 C 1066.937988 122.7985 1064.349976 120.017197 1064.349976 113.750397 L 1064.349976 94.052299 L 1080.140015 94.052299 C 1080.598022 94.052299 1080.984985 93.682602 1080.984985 93.207298 L 1080.984985 85.8843 C 1080.984985 85.426605 1080.61499 85.039398 1080.140015 85.039398 L 1064.349976 85.039398 L 1064.349976 69.530807 C 1064.349976 69.073105 1063.97998 68.685898 1063.505005 68.685898 L 1054.755981 68.685898 C 1054.297974 68.685898 1053.911011 69.055496 1053.911011 69.530807 L 1053.911011 85.039398 L 1031.379028 85.039398 L 1031.379028 69.530807 C 1031.379028 69.073105 1031.009033 68.685898 1030.534058 68.685898 L 1021.785034 68.685898 C 1021.327026 68.685898 1020.940002 69.055496 1020.940002 69.530807 L 1020.940002 85.039398 L 1011.697998 85.039398 C 1011.241028 85.039398 1010.853027 85.408997 1010.853027 85.8843 L 1010.853027 93.207298 C 1010.853027 93.665001 1011.223022 94.052299 1011.697998 94.052299 L 1020.940002 94.052299 L 1020.940002 113.750397 C 1020.940002 125.703102 1027.207031 132.550995 1038.120972 132.550995 C 1041.712036 132.550995 1044.281982 132.127991 1048.718018 130.807999 C 1049.123047 130.684998 1049.386963 130.279999 1049.299072 129.856995 L 1047.96106 122.340797 C 1047.926025 122.112 1047.785034 121.900703 1047.573975 121.777496 C 1047.363037 121.654297 1047.115967 121.619102 1046.886963 121.689499 C 1044.510986 122.375999 1041.817993 122.7985 1039.704956 122.7985 C 1033.914063 122.7985 1031.32605 120.017197 1031.32605 113.750397 L 1031.32605 94.052299 L 1053.858032 94.052299 L 1053.858032 113.750397 C 1053.858032 125.703102 1060.125 132.550995 1071.039063 132.550995 C 1074.630005 132.550995 1077.200073 132.127991 1081.635986 130.807999 C 1082.041016 130.684998 1082.305054 130.279999 1082.217041 129.856995 L 1080.879028 122.340797 C 1080.843994 122.112 1080.703003 121.900703 1080.492065 121.777496 L 1080.598022 121.777496 Z"/>
          <path id="path1" fill="#03709a" stroke="none" d="M 1107.619019 83.912498 C 1093.641968 83.912498 1083.484985 94.104897 1083.484985 108.134697 C 1083.484985 122.164597 1093.624023 132.268997 1107.619019 132.268997 C 1117.898926 132.268997 1126.277954 126.970299 1128.953979 118.767097 C 1129.041992 118.503098 1128.989014 118.238998 1128.830933 118.010201 C 1128.671997 117.799004 1128.426025 117.658096 1128.144043 117.658096 L 1118.726929 117.658096 C 1118.410034 117.658096 1118.12793 117.834198 1117.986938 118.098198 C 1116.261963 121.372398 1112.671021 123.167999 1107.901001 123.167999 C 1099.573975 123.167999 1095.332031 117.7285 1094.011963 112.306702 L 1128.901001 112.306702 C 1128.901001 112.306702 1128.971924 112.306702 1128.989014 112.306702 C 1129.147949 112.306702 1129.323975 112.306702 1129.464966 112.218697 C 1129.710938 112.095497 1129.869995 111.8666 1129.905029 111.6026 C 1130.098022 110.299896 1130.098022 108.909302 1130.098022 107.659401 C 1129.993042 93.911201 1120.540039 83.912498 1107.583984 83.912498 L 1107.619019 83.912498 Z M 1093.994019 104.068398 C 1095.454956 97.273499 1100.453979 93.101501 1107.231934 93.101501 C 1114.009033 93.101501 1118.463013 97.185501 1119.500977 104.068398 L 1093.994019 104.068398 Z"/>
          <path id="path2" fill="#03709a" stroke="none" d="M 974.484985 63.475296 C 955.473022 63.475296 940 78.9487 940 97.960297 C 940 116.971901 955.473022 132.445007 974.484985 132.445007 C 993.497009 132.445007 1008.970032 116.971901 1008.970032 97.960297 C 1008.970032 78.9487 993.497009 63.475296 974.484985 63.475296 Z M 998.072998 97.960297 C 998.072998 111.391602 987.494019 122.305702 974.484985 122.305702 C 961.476013 122.305702 950.807983 111.602898 950.807983 97.960297 C 950.807983 84.317703 961.212036 73.614899 974.484985 73.614899 C 987.757996 73.614899 998.072998 84.5289 998.072998 97.960297 Z"/>
          <path id="path3" fill="#03709a" stroke="none" d="M 1161.239014 84.018295 C 1155.060059 84.018295 1149.603027 86.201096 1145.343018 90.337898 L 1145.343018 85.901794 C 1145.343018 85.444099 1144.973022 85.0569 1144.498047 85.0569 L 1135.749023 85.0569 C 1135.291016 85.0569 1134.904053 85.426498 1134.904053 85.901794 L 1134.904053 130.296997 C 1134.904053 130.755005 1135.274048 131.141998 1135.749023 131.141998 L 1144.498047 131.141998 C 1144.956055 131.141998 1145.343018 130.77301 1145.343018 130.296997 L 1145.343018 102.149696 C 1149.233032 96.9039 1154.584961 94.140198 1161.255981 93.964203 C 1161.713989 93.964203 1162.06604 93.576897 1162.06604 93.119202 L 1162.06604 84.845596 C 1162.06604 84.387901 1161.696045 84.000702 1161.221069 84.000702 L 1161.239014 84.018295 Z"/>
          <path id="path4" fill="#03709a" stroke="none" d="M 1222.727051 85.056999 L 1184.51001 85.056999 C 1184.052979 85.056999 1183.665039 85.426697 1183.665039 85.902 L 1183.665039 93.224998 C 1183.665039 93.682602 1184.035034 94.069901 1184.51001 94.069901 L 1208.416016 94.069901 L 1182.995972 125.491898 C 1182.873047 125.632698 1182.802979 125.826302 1182.802979 126.019997 L 1182.802979 130.298004 C 1182.802979 130.755005 1183.171997 131.143005 1183.648071 131.143005 L 1222.708984 131.143005 C 1223.166992 131.143005 1223.553955 130.77301 1223.553955 130.298004 L 1223.553955 122.974602 C 1223.553955 122.516899 1223.185059 122.129601 1222.708984 122.129601 L 1198.328979 122.129601 L 1223.360962 91.270996 C 1223.484009 91.130203 1223.553955 90.936501 1223.553955 90.742905 L 1223.553955 85.902 C 1223.553955 85.444305 1223.185059 85.056999 1222.708984 85.056999 L 1222.727051 85.056999 Z"/>
          <path id="path5" fill="#03709a" stroke="none" d="M 1249.062012 83.912498 C 1235.084961 83.912498 1224.927979 94.104897 1224.927979 108.134697 C 1224.927979 122.164597 1235.067017 132.268997 1249.062012 132.268997 C 1259.341919 132.268997 1267.720947 126.970299 1270.396973 118.767097 C 1270.484985 118.503098 1270.432007 118.238998 1270.273926 118.010201 C 1270.11499 117.799004 1269.869019 117.658096 1269.586914 117.658096 L 1260.168945 117.658096 C 1259.853027 117.658096 1259.570923 117.834198 1259.429932 118.098198 C 1257.704956 121.372398 1254.114014 123.167999 1249.343018 123.167999 C 1241.016968 123.167999 1236.775024 117.7285 1235.453979 112.306702 L 1270.343994 112.306702 C 1270.343994 112.306702 1270.414917 112.306702 1270.432007 112.306702 C 1270.590942 112.306702 1270.766968 112.306702 1270.906982 112.218697 C 1271.153931 112.095497 1271.312012 111.8666 1271.348022 111.6026 C 1271.541016 110.299896 1271.541016 108.909302 1271.541016 107.659401 C 1271.435913 93.911201 1261.98291 83.912498 1249.026978 83.912498 L 1249.062012 83.912498 Z M 1235.437012 104.068398 C 1236.897949 97.273499 1241.896973 93.101501 1248.67395 93.101501 C 1255.452026 93.101501 1259.905029 97.185501 1260.94397 104.068398 L 1235.437012 104.068398 Z"/>
          <path id="path6" fill="#03709a" stroke="none" d="M 1171.782959 63 C 1168.051025 63 1165.234985 65.7285 1165.234985 69.354797 C 1165.234985 72.981094 1168.051025 75.709595 1171.782959 75.709595 C 1175.515015 75.709595 1178.332031 72.910706 1178.332031 69.354797 C 1178.332031 65.798904 1175.462036 63 1171.782959 63 Z"/>
          <path id="path7" fill="#03709a" stroke="none" d="M 1176.149048 85.056999 L 1167.505981 85.056999 C 1167.039063 85.056999 1166.661011 85.435303 1166.661011 85.902 L 1166.661011 130.279999 C 1166.661011 130.747009 1167.039063 131.125 1167.505981 131.125 L 1176.149048 131.125 C 1176.61499 131.125 1176.994019 130.747009 1176.994019 130.279999 L 1176.994019 85.902 C 1176.994019 85.435303 1176.61499 85.056999 1176.149048 85.056999 Z"/>
          <linearGradient id="linearGradient1" x1="810.6412" y1="184.339" x2="810.6412" y2="45.2371" gradientUnits="userSpaceOnUse">
              <stop offset="1e-05" stop-color="#023e57" stop-opacity="1"/>
              <stop offset="0.880208" stop-color="#02729d" stop-opacity="1"/>
          </linearGradient>
          <path id="path8" fill="url(#linearGradient1)" stroke="none" d="M 763.411499 55.71109 C 765.787903 55.71109 767.706726 57.629898 767.706726 60.006302 C 767.706726 62.382797 765.787903 64.301498 763.411499 64.301498 C 761.034973 64.301498 759.116272 62.382797 759.116272 60.006302 C 759.116272 57.629898 761.034973 55.71109 763.411499 55.71109 Z M 808.28241 60.006302 C 808.28241 57.629898 806.363586 55.71109 803.987183 55.71109 C 801.610718 55.71109 799.691895 57.629898 799.691895 60.006302 C 799.691895 62.382797 801.610718 64.301498 803.987183 64.301498 C 806.363586 64.301498 808.28241 62.382797 808.28241 60.006302 Z M 767.7771 75.972504 C 769.132568 75.972504 770.223999 74.881104 770.241577 73.525696 C 770.241577 72.170197 769.150208 71.061203 767.794678 71.061203 L 767.689087 71.061203 C 750.789917 71.061203 734.330811 75.9021 720.124878 85.073502 C 718.980652 85.812805 718.663818 87.326698 719.385498 88.470901 C 719.86084 89.192703 720.652954 89.597504 721.445129 89.597504 C 721.902771 89.597504 722.360474 89.474304 722.782959 89.210297 C 736.196716 80.567001 751.7229 75.990204 767.689087 75.990204 C 767.724304 75.990204 767.759521 75.990204 767.794678 75.990204 L 767.7771 75.972504 Z M 805.11377 73.983398 C 805.11377 75.338799 806.2052 76.4478 807.560608 76.4478 C 819.02002 76.4478 830.250977 79.651596 840.003967 85.671997 C 840.390991 85.918396 840.830994 86.024101 841.252991 86.041702 C 842.098022 86.041702 842.90802 85.636795 843.382996 84.879799 C 844.088013 83.718002 843.734985 82.204102 842.573975 81.5 C 832.046997 75.004395 819.935974 71.571701 807.560608 71.5541 C 806.2052 71.5541 805.096191 72.6455 805.096191 74.000999 L 805.11377 73.983398 Z M 884.927002 131.722 C 884.927002 131.722 884.768982 131.863007 884.697998 131.93399 C 894.080994 135.154999 895.911987 142.988007 896.210999 146.244995 C 896.281006 146.96701 895.789001 147.617996 895.083984 147.759003 C 879.664001 151.03299 869.119019 161.330994 848.734985 165.362 L 848.646973 165.362 C 829.47699 169.147003 810.060303 166.488998 792.844177 159.059998 L 792.192871 160.662003 C 791.840881 161.524994 790.995911 162.087997 790.062866 162.106003 C 784.271423 162.106003 778.761597 159.464996 775.170471 154.852997 C 771.579407 150.240997 770.347168 144.255997 771.755371 138.65799 C 747.568481 126.758202 738.925171 100.494003 738.432312 99.332199 C 736.619202 100.740402 734.841309 102.236702 733.151306 103.803398 C 732.658386 104.261101 732.00708 104.472397 731.390991 104.454803 C 730.774902 104.437103 730.141174 104.173103 729.683472 103.662598 C 728.768127 102.659203 728.820923 101.1101 729.82428 100.194702 C 740.861572 89.967201 754.468994 82.855499 769.167786 79.634003 C 770.487976 79.352402 771.808289 80.179703 772.089905 81.5 C 772.389221 82.820206 771.544189 84.140503 770.223999 84.422104 C 766.315979 85.284698 762.478516 86.446503 758.764221 87.872398 C 766.403992 96.867699 783.250366 90.917801 784.060181 77.345596 C 781.824585 77.345596 777.951782 75.673302 776.068298 72.962402 C 773.638977 69.476898 776.121094 63.755798 787.35199 63.755798 C 796.981018 63.755798 801.5755 68.649597 798.670898 72.909599 C 797.438721 74.722702 794.851013 76.641495 791.136719 77.451202 C 790.89032 84.052505 796.206482 89.5271 802.7901 89.5271 C 802.842896 89.5271 802.895813 89.5271 802.966187 89.5271 C 806.046692 89.5271 808.863281 88.224503 810.922913 86.217697 C 809.021667 85.689606 807.085266 85.249496 805.131409 84.9151 C 803.793518 84.686203 802.895813 83.436401 803.106995 82.080902 C 803.335815 80.743103 804.585693 79.827698 805.941101 80.056503 C 815.358887 81.623199 824.354004 85.478302 831.958984 91.234604 C 833.03302 92.044403 833.262024 93.593498 832.434021 94.684898 C 831.940979 95.336197 831.202026 95.6707 830.445007 95.653099 C 829.934021 95.653099 829.424011 95.494698 828.984009 95.160202 C 824.494995 91.762695 819.477966 89.104599 814.179504 87.238701 C 818.756409 97.659897 829.159973 104.93 841.270996 104.93 C 853.382019 104.93 864.154968 97.466202 868.643982 86.604996 C 868.925964 85.918396 869.700012 85.566399 870.421997 85.795197 C 876.953003 88.0308 880.843018 94.508904 880.06897 101.092499 C 889.416016 87.925201 891.89801 70.515503 885.560974 54.7957 C 885.437988 54.478897 885.560974 54.126801 885.825012 53.933197 C 886.106995 53.739502 886.476013 53.792297 886.723022 54.021194 C 898.570007 66.079498 904.167969 83.049103 901.667969 99.8955 C 899.836975 112.235397 893.835022 123.395897 884.927002 131.669998 L 884.927002 131.722 Z M 879.029968 130.19101 C 878.291016 124.469704 876.037964 119.400002 872.164978 115.527298 C 869.171997 112.534698 865.476013 110.792 861.304016 110.052597 C 850.969971 107.746597 838.013977 110.862396 825.797974 118.766296 C 824.934998 119.311996 820.692993 120.949097 817.664917 118.519798 C 814.021118 115.597702 817.471313 111.901001 814.566772 108.820396 L 814.408325 108.661903 C 812.771179 107.1129 811.151672 107.3769 808.423218 107.3769 C 805.870667 107.3769 803.793518 105.299698 803.793518 102.7472 C 803.793518 97.413399 804.0224 98.152802 799.639099 94.121597 C 795.836792 93.364601 791.770386 91.798004 788.144104 87.133102 C 783.127197 94.227203 773.357422 99.3498 763.376282 97.536598 L 796.928223 134.222 C 799.867981 137.425995 800.48407 142.143005 798.442078 145.998993 C 797.667603 147.47699 796.893005 149.061996 796.153687 150.821991 C 795.572815 152.248001 795.343872 152.776001 794.903809 154.042999 C 802.138794 157.177002 809.725769 159.395004 817.365723 160.608994 C 827.083008 162.158005 836.922974 158.690994 843.507019 151.367996 C 844.739014 149.994995 845.971008 148.550995 847.203003 147.089996 C 859.015015 133.130997 870.317017 129.257996 879.013 130.208008 L 879.029968 130.19101 Z M 753.025513 66.959595 C 749.504822 60.111893 750.560974 52.278503 755.754028 46.258102 C 767.65387 32.404297 791.928894 35.027191 808.704773 41.962891 C 809.338623 40.924301 809.690613 39.709702 809.690613 38.406998 C 809.690613 34.587112 806.592468 31.488922 802.772522 31.488922 C 801.258606 31.488922 799.867981 31.981812 798.723816 32.809174 C 781.754089 26.137512 761.651123 25.222137 748.360596 37.755707 C 747.110779 35.977768 745.051208 34.815948 742.7099 34.815948 C 738.890015 34.815948 735.809387 37.914139 735.809387 41.7341 C 735.809387 44.796997 737.798584 47.402298 740.562317 48.300095 C 736.707214 55.816696 735.05249 63.738205 734.770813 71.483704 C 740.597473 69.0896 746.758728 67.575806 753.025513 66.977203 L 753.025513 66.959595 Z"/>
      </g>
  </svg>
</svg>
